<svg width="33" height="32" viewBox="0 0 33 32" fill="none" xmlns="http://www.w3.org/2000/svg">
<path d="M16.1667 32C25.0032 32 32.1667 24.8366 32.1667 16C32.1667 7.16344 25.0032 0 16.1667 0C7.33013 0 0.166687 7.16344 0.166687 16C0.166687 24.8366 7.33013 32 16.1667 32Z" fill="#E77796"/>
<path d="M24.6716 11.8058C24.5551 10.6925 24.1279 9.70869 23.2994 8.91905C22.4321 8.09057 21.3577 7.71516 20.1926 7.66338C18.1991 7.55982 13.4742 7.48215 11.8043 7.754C9.90138 8.06468 8.65866 9.165 8.14086 11.042C7.73957 12.4789 7.81724 19.1326 8.05025 20.5566C8.37387 22.5113 9.52597 23.754 11.4548 24.2589C12.7881 24.6084 19.3642 24.5566 20.8399 24.3236C22.7946 24.0129 24.0502 22.8608 24.5551 20.932C24.9434 19.4563 24.8011 13.1521 24.6716 11.8187V11.8058ZM23.1053 20.2718C22.8722 21.7475 21.9014 22.6666 20.4127 22.8349C19.0405 22.9902 12.9434 23.0679 11.6748 22.7184C10.458 22.3818 9.77193 21.5404 9.56481 20.3236C9.37063 19.1585 9.31885 13.3333 9.56481 11.7669C9.78487 10.3042 10.7687 9.38507 12.2444 9.21678C13.746 9.0485 19.1441 9.03555 20.5939 9.25562C22.0697 9.48863 22.9888 10.4724 23.1441 11.9611C23.2994 13.3462 23.3383 18.7831 23.1053 20.2847V20.2718ZM16.335 11.6763C13.9402 11.6763 11.9855 13.6181 11.9855 16.0258C11.9855 18.4207 13.9273 20.3754 16.335 20.3754C18.7428 20.3754 20.6846 18.4336 20.6846 16.0258C20.6846 13.631 18.7428 11.6763 16.335 11.6763ZM16.3091 18.8349C14.7557 18.822 13.513 17.5534 13.526 16C13.5389 14.4466 14.8075 13.2038 16.3609 13.2168C17.9143 13.2297 19.157 14.4983 19.1441 16.0517C19.1312 17.6051 17.8625 18.8479 16.3091 18.8349ZM21.8755 11.521C21.8755 12.0776 21.4224 12.5436 20.8528 12.5307C20.2962 12.5307 19.8302 12.0776 19.8431 11.508C19.8431 10.9514 20.2962 10.4854 20.8658 10.4983C21.4224 10.4983 21.8884 10.9514 21.8755 11.521Z" fill="white"/>
<path d="M24.6716 11.8058C24.5551 10.6925 24.1279 9.70869 23.2994 8.91905C22.4321 8.09057 21.3577 7.71516 20.1926 7.66338C18.1991 7.55982 13.4742 7.48215 11.8043 7.754C9.90138 8.06468 8.65866 9.165 8.14086 11.042C7.73957 12.4789 7.81724 19.1326 8.05025 20.5566C8.37387 22.5113 9.52597 23.754 11.4548 24.2589C12.7881 24.6084 19.3642 24.5566 20.8399 24.3236C22.7946 24.0129 24.0502 22.8608 24.5551 20.932C24.9434 19.4563 24.8011 13.1521 24.6716 11.8187V11.8058ZM23.1053 20.2718C22.8722 21.7475 21.9014 22.6666 20.4127 22.8349C19.0405 22.9902 12.9434 23.0679 11.6748 22.7184C10.458 22.3818 9.77193 21.5404 9.56481 20.3236C9.37063 19.1585 9.31885 13.3333 9.56481 11.7669C9.78487 10.3042 10.7687 9.38507 12.2444 9.21678C13.746 9.0485 19.1441 9.03555 20.5939 9.25562C22.0697 9.48863 22.9888 10.4724 23.1441 11.9611C23.2994 13.3462 23.3383 18.7831 23.1053 20.2847V20.2718ZM16.335 11.6763C13.9402 11.6763 11.9855 13.6181 11.9855 16.0258C11.9855 18.4207 13.9273 20.3754 16.335 20.3754C18.7428 20.3754 20.6846 18.4336 20.6846 16.0258C20.6846 13.631 18.7428 11.6763 16.335 11.6763ZM16.3091 18.8349C14.7557 18.822 13.513 17.5534 13.526 16C13.5389 14.4466 14.8075 13.2038 16.3609 13.2168C17.9143 13.2297 19.157 14.4983 19.1441 16.0517C19.1312 17.6051 17.8625 18.8479 16.3091 18.8349ZM21.8755 11.521C21.8755 12.0776 21.4224 12.5436 20.8528 12.5307C20.2962 12.5307 19.8302 12.0776 19.8431 11.508C19.8431 10.9514 20.2962 10.4854 20.8658 10.4983C21.4224 10.4983 21.8884 10.9514 21.8755 11.521Z" fill="white"/>
</svg>
