<svg width="33" height="32" viewBox="0 0 33 32" fill="none" xmlns="http://www.w3.org/2000/svg">
<path d="M16.1667 32C25.0032 32 32.1667 24.8366 32.1667 16C32.1667 7.16344 25.0032 0 16.1667 0C7.33013 0 0.166687 7.16344 0.166687 16C0.166687 24.8366 7.33013 32 16.1667 32Z" fill="#E77796"/>
<path fill-rule="evenodd" clip-rule="evenodd" d="M15.0016 19.6377C15.0016 19.6377 14.9757 19.7283 14.9628 19.7801C14.2897 22.4209 14.212 23.0034 13.5259 24.2332C13.1893 24.8157 12.8269 25.3723 12.4126 25.9031C12.3608 25.9678 12.322 26.0455 12.2314 26.0196C12.1278 25.9937 12.1278 25.9031 12.1149 25.8254C11.9984 25.0228 11.9466 24.2202 11.9725 23.4047C12.0113 22.3432 12.1408 21.9937 13.5 16.272C13.5259 16.1814 13.5 16.1167 13.4741 16.039C13.1505 15.1587 13.0858 14.2655 13.3706 13.3723C13.9919 11.4176 16.1926 11.2752 16.5809 12.8804C16.8139 13.8772 16.1926 15.1846 15.7007 17.1005C15.2994 18.6927 17.1764 19.8189 18.7686 18.6539C20.2443 17.5794 20.8139 15.0163 20.7104 13.204C20.4903 9.57944 16.5291 8.80274 14.0049 9.96779C11.1181 11.3011 10.4579 14.8869 11.7654 16.518C11.9337 16.7251 12.0631 16.8545 11.9984 17.0616C11.9078 17.3853 11.8431 17.7218 11.7524 18.0455C11.6877 18.2914 11.4806 18.382 11.2346 18.2785C10.7557 18.0843 10.3544 17.7736 10.0308 17.3723C8.91749 16.0002 8.60681 13.2817 10.0696 10.9904C11.6877 8.44028 14.7168 7.41763 17.4612 7.72831C20.7492 8.10371 22.8333 10.3561 23.2217 12.9063C23.4029 14.0713 23.2735 16.9322 21.6424 18.9646C19.7654 21.2947 16.7233 21.45 15.3123 20.0131C15.2088 19.9095 15.1181 19.7801 15.0146 19.6506L15.0016 19.6377Z" fill="white"/>
</svg>
