<svg width="33" height="32" viewBox="0 0 33 32" fill="none" xmlns="http://www.w3.org/2000/svg">
<path d="M16.1667 32C25.0032 32 32.1667 24.8366 32.1667 16C32.1667 7.16344 25.0032 0 16.1667 0C7.33013 0 0.166687 7.16344 0.166687 16C0.166687 24.8366 7.33013 32 16.1667 32Z" fill="#E77796"/>
<path fill-rule="evenodd" clip-rule="evenodd" d="M7.71368 24.492C7.81724 24.1037 7.8949 23.7801 7.98552 23.4435C8.28325 22.382 8.581 21.3205 8.85285 20.2461C8.89168 20.0907 8.87873 19.8707 8.80106 19.7283C6.09555 14.5762 8.89167 8.3367 14.5616 7.00337C19.7137 5.79949 24.348 9.26874 25.1894 13.916C26.0697 18.7704 22.8981 23.3788 18.0826 24.2202C16.1667 24.5568 14.3415 24.272 12.5939 23.4176C12.4386 23.3399 12.2185 23.314 12.0503 23.3529C9.72016 23.9354 8.17971 24.3755 7.70074 24.4662L7.71368 24.492ZM9.75899 22.4726C10.6393 22.2396 11.4418 22.0454 12.2444 21.8124C12.4645 21.7477 12.6457 21.7865 12.8399 21.903C14.3544 22.7704 15.9726 23.094 17.7072 22.8221C21.6943 22.1878 24.4257 18.4467 23.8172 14.4726C23.1829 10.3561 19.3253 7.58589 15.2477 8.3367C10.3156 9.24285 7.6878 14.7445 10.1473 19.1069C10.4192 19.5859 10.4968 19.9872 10.3156 20.505C10.0956 21.1263 9.9661 21.7736 9.77193 22.4726H9.75899Z" fill="white"/>
<path fill-rule="evenodd" clip-rule="evenodd" d="M18.8463 19.7801C17.1376 19.7153 14.3932 18.3691 12.5292 15.1199C11.869 13.9678 11.9596 12.6474 12.9304 11.7412C13.2541 11.4305 13.6683 11.5082 14.0567 11.5729C14.1473 11.5859 14.2508 11.7283 14.3026 11.8448C14.5486 12.4144 14.7945 12.9839 15.0146 13.5665C15.1311 13.8772 14.924 14.1619 14.4709 14.6668C14.3285 14.8221 14.3026 14.9775 14.4062 15.1716C15.1311 16.3885 16.1279 17.2687 17.4612 17.7865C17.6554 17.8642 17.7978 17.8124 17.9272 17.6571C18.6262 16.8027 18.7039 16.5568 19.0664 16.725C20.8398 17.5794 20.9822 17.6053 20.9822 17.8124C21.047 19.314 19.6748 19.8448 18.8334 19.7801H18.8463Z" fill="white"/>
</svg>
